<?xml version="1.0" encoding="utf-8"?>
<!-- Generator: Adobe Illustrator 27.5.0, SVG Export Plug-In . SVG Version: 6.00 Build 0)  -->
<svg version="1.1" xmlns="http://www.w3.org/2000/svg" xmlns:xlink="http://www.w3.org/1999/xlink" x="0px" y="0px"
	 viewBox="0 0 500 500" style="enable-background:new 0 0 500 500;" xml:space="preserve">
<g id="BACKGROUND">
</g>
<g id="OBJECTS">
	<g>
		<g>
			
				<ellipse transform="matrix(0.7071 -0.7071 0.7071 0.7071 -94.5058 381.2995)" style="fill:#FDD34F;" cx="413.016" cy="304.728" rx="20.271" ry="20.271"/>
			<path style="fill:none;stroke:#FFFFFF;stroke-width:0.6;stroke-linecap:round;stroke-linejoin:round;stroke-miterlimit:10;" d="
				M397.031,299.034c1.72-6.536,8.214-11.487,14.972-11.415"/>
		</g>
		<g>
			
				<rect x="382.857" y="336.835" transform="matrix(0.6915 0.7224 -0.7224 0.6915 392.5347 -185.1358)" style="fill:#6C6CE7;" width="60.319" height="60.319"/>
			<path style="fill:none;stroke:#FFFFFF;stroke-width:0.6;stroke-linecap:round;stroke-linejoin:round;stroke-miterlimit:10;" d="
				M379.21,362.776c11.812-10.941,23.624-21.882,35.437-32.823"/>
		</g>
	</g>
	<path style="fill:#FFE4EB;" d="M360.861,170.891c-19.947,0.703-40.138,0.129-59.83-3.127c-4.572-0.756-9.259-1.668-13.151-4.185
		c-3.892-2.516-6.843-7.025-6.189-11.613c0.575-4.039,3.735-7.243,7.165-9.451c3.431-2.208,7.286-3.737,10.547-6.188
		c6.247-4.693,9.776-12.773,8.974-20.546c-0.802-7.773-5.909-14.961-12.983-18.279l-179.277,29.341
		c0.419,11.793,0.116,23.545,0.535,35.338c-4.881-1.608-10.369-1.288-15.03,0.876c-4.661,2.164-6.961,8.86-10.905,12.155
		c-13.081,10.928-25.45,23.387-32.521,38.896c-7.072,15.509-8.07,34.612,0.957,49.07c6.101,9.773,16.264,16.626,27.275,20.016
		c11.011,3.391,22.829,3.521,34.227,1.842c5.198-0.765,10.495-1.899,15.65-0.883c5.155,1.016,10.206,4.904,10.579,10.144
		c0.364,5.119-3.849,9.605-8.599,11.547c-4.75,1.942-10.018,2.007-15.114,2.617c-5.095,0.61-10.459,1.98-13.904,5.783
		c-4.415,4.873-4.32,12.771-0.862,18.364c3.458,5.593,9.636,9.064,16.019,10.647c6.382,1.583,13.044,1.494,19.618,1.397
		c33.148-0.493,66.296-0.986,99.444-1.479c29.342-0.437,59.353-2.417,84.074-18.229c24.72-15.813,43.108-41.446,49.522-70.081
		C383.496,226.228,377.679,194.938,360.861,170.891z"/>
	<g>
		<path style="fill:#FFE4EB;" d="M384.776,471.296c0,8.29-42.318,7.185-94.521,7.185c-52.202,0-94.521,0-94.521-7.185
			c0-7.185,42.318-7.185,94.521-7.185C342.457,464.111,384.776,464.111,384.776,471.296z"/>
		<polygon style="fill:#434582;" points="202.117,325.976 249.149,315.689 211.166,264.824 		"/>
		<g>
			<path style="fill:#FFFFFF;" d="M258.6,221.86c-7.355,1.896-14.569,3.86-21.923,5.756c0.18,2.037-1.275,4.098-3.255,4.609
				c-1.98,0.512-4.198-0.544-5.027-2.414c-4.741,1.683-9.482,3.366-14.224,5.049c-1.732,12.771-3.965,25.826-5.697,38.597
				c5.264,7.391,11.36,14.002,17.889,20.303c18.923-7.281,37.746-14.196,56.669-21.478L258.6,221.86z"/>
			<path style="fill:none;stroke:#060305;stroke-width:0.6;stroke-linecap:round;stroke-linejoin:round;stroke-miterlimit:10;" d="
				M224.745,232.55c1.181,2.16,3.405,3.751,5.875,4.203c2.47,0.452,5.134-0.245,7.04-1.84c1.906-1.595,3.013-4.057,2.925-6.503"/>
			<path style="fill:none;stroke:#060305;stroke-width:0.6;stroke-linecap:round;stroke-linejoin:round;stroke-miterlimit:10;" d="
				M222.421,270.61c2.879,2.229,7.061,2.624,10.305,0.972c3.245-1.652,5.387-5.265,5.278-8.904"/>
			<path style="fill:none;stroke:#060305;stroke-width:0.6;stroke-linecap:round;stroke-linejoin:round;stroke-miterlimit:10;" d="
				M260.913,257.235c2.143,1.602,5.036,2.153,7.618,1.451c2.582-0.702,4.798-2.641,5.836-5.107"/>
		</g>
		<g>
			<path style="fill:#C14F4F;" d="M185.645,245.444c-2.327,0.846-4.639,1.69-6.967,2.535c-5.582-8.613-11.164-17.225-16.746-25.838
				c-2.137-3.298-4.286-6.611-6.902-9.543c-2.617-2.932-5.773-5.579-9.421-7.043c-9.457,3.439-18.993,6.845-28.45,10.284
				c-4.474-1.562-8.948-3.125-13.422-4.687c-0.952-0.332-1.937-0.67-2.942-0.597c-1.006,0.072-1.72,0.711-1.993,1.682
				c5.504,5.117,11.008,10.233,16.512,15.35c7.348,1.339,14.71,2.401,22.059,3.74c4.056,10.271,8.446,20.482,13.046,30.52
				c1.827,3.987,3.724,7.837,7.053,10.692c3.77,3.233,8.668,4.921,13.589,5.597c4.921,0.675,9.916,0.407,14.875,0.137l1.447-3.312
				C186.951,265.13,186.077,255.274,185.645,245.444z"/>
			<path style="fill:none;stroke:#060305;stroke-width:0.6;stroke-linecap:round;stroke-linejoin:round;stroke-miterlimit:10;" d="
				M178.821,247.658c-0.796,0.495-1.592,0.989-2.388,1.484"/>
			<path style="fill:none;stroke:#060305;stroke-width:0.6;stroke-linecap:round;stroke-linejoin:round;stroke-miterlimit:10;" d="
				M137.395,231.3c0.614-0.123,1.228-0.246,1.842-0.368"/>
			<path style="fill:none;stroke:#060305;stroke-width:0.6;stroke-linecap:round;stroke-linejoin:round;stroke-miterlimit:10;" d="
				M130.623,219.207c2.394-1.611,5.473-2.164,8.277-1.487"/>
		</g>
		<g>
			<path style="fill:#C14F4F;" d="M376.677,164.557c-0.429-0.196-1.17-0.187-1.6,0.007c-2.622,1.182-5.319,2.449-7.941,3.632
				c4.087-4.204,8.126-8.476,12.213-12.68c-0.303-0.448-0.788-0.768-1.318-0.872c-0.531-0.103-1.199,0.079-1.646,0.383
				c-2.904,1.969-5.745,4.016-8.649,5.985c2.82-4.022,5.346-8.231,7.555-12.618c-0.461-0.422-1.092-0.653-1.717-0.629
				c-0.625,0.024-1.333,0.174-1.761,0.631c-0.447-0.663-1.365-0.87-2.147-0.706c-0.783,0.165-1.384,0.77-2.081,1.163
				c-5.18,2.923-9.867,6.037-14.654,9.568c-4.134-0.168-8.281-0.211-12.415-0.379c-0.182-3.726-0.363-7.452-0.544-11.178
				c-0.045-0.92-0.097-1.871-0.506-2.696c-0.409-0.826-1.445-1.373-2.36-1.262c-2.266,5.951-4.531,11.902-6.797,17.853
				c-1.608,4.224-2.29,8.846-1.379,13.273c-5.824,13.452-11.841,26.591-17.665,40.043c-4.849,0.753-9.837,1.498-14.685,2.251
				l7.58,32.734c7.471-2.044,15.057-4.136,21.65-8.201c6.593-4.064,11.099-11.16,13.661-18.469
				c4.535-12.938,9.33-26.074,13.865-39.012c8.649-5.03,16.85-11.071,24.259-17.795
				C377.448,165.133,377.107,164.753,376.677,164.557z"/>
			<path style="fill:none;stroke:#060305;stroke-width:0.6;stroke-linecap:round;stroke-linejoin:round;stroke-miterlimit:10;" d="
				M311.225,214.438c0.63,0.534,1.26,1.068,1.889,1.602"/>
			<path style="fill:none;stroke:#060305;stroke-width:0.6;stroke-linecap:round;stroke-linejoin:round;stroke-miterlimit:10;" d="
				M340.647,159.368c2.497,3.195,3.265,7.665,1.977,11.51"/>
			<path style="fill:none;stroke:#060305;stroke-width:0.6;stroke-linecap:round;stroke-linejoin:round;stroke-miterlimit:10;" d="
				M350.957,162.858c1.496,2.257,2.991,4.515,4.487,6.773"/>
			<path style="fill:none;stroke:#060305;stroke-width:0.6;stroke-linecap:round;stroke-linejoin:round;stroke-miterlimit:10;" d="
				M353.389,183.582c-0.675,0.492-1.35,0.984-2.025,1.476"/>
			<path style="fill:none;stroke:#060305;stroke-width:0.6;stroke-linecap:round;stroke-linejoin:round;stroke-miterlimit:10;" d="
				M358.111,161.299c2.596-2.066,5.192-4.133,7.789-6.199c2.505-1.994,4.695-4.373,6.525-7"/>
			<path style="fill:none;stroke:#060305;stroke-width:0.6;stroke-linecap:round;stroke-linejoin:round;stroke-miterlimit:10;" d="
				M361.433,165.158c2.405-1.582,4.809-3.164,7.214-4.745"/>
			<path style="fill:none;stroke:#060305;stroke-width:0.6;stroke-linecap:round;stroke-linejoin:round;stroke-miterlimit:10;" d="
				M362.649,170.326c1.79-0.935,3.579-1.87,5.369-2.805"/>
		</g>
		<g>
			<path style="fill:#060305;" d="M415.69,407.608c-5.129,1.173-10.636,0.624-15.432-1.537c-4.797-2.161-8.855-5.924-11.374-10.543
				c-12.664,5.647-26.29,10.415-38.954,16.062c8.004,9.414,15.724,18.281,23.728,27.694l49.891-28.723
				C422.437,408.15,418.279,407.015,415.69,407.608z"/>
			<path style="fill:none;stroke:#FFFFFF;stroke-width:0.6;stroke-linecap:round;stroke-linejoin:round;stroke-miterlimit:10;" d="
				M372.646,436.479c15.901-9.141,31.801-18.282,47.701-27.423"/>
			<path style="fill:none;stroke:#FFFFFF;stroke-width:0.6;stroke-linecap:round;stroke-linejoin:round;stroke-miterlimit:10;" d="
				M390.602,406.812c1.559-1.059,3.118-2.119,4.677-3.178"/>
			<path style="fill:none;stroke:#FFFFFF;stroke-width:0.6;stroke-linecap:round;stroke-linejoin:round;stroke-miterlimit:10;" d="
				M393.103,409.333c1.805-1.305,3.609-2.611,5.414-3.916"/>
		</g>
		<g>
			<path style="fill:#060305;" d="M276.616,466.998c-4.832-1.971-8.68-6.213-10.173-11.213c-1.493-5-0.6-10.658,2.361-14.955
				c-14.276-0.95-28.731-2.975-43.008-3.925c-1.121,11.591-2.395,22.774-3.516,34.365l56.774,1.173
				C279.612,470.665,278.342,467.702,276.616,466.998z"/>
			<path style="fill:none;stroke:#FFFFFF;stroke-width:0.6;stroke-linecap:round;stroke-linejoin:round;stroke-miterlimit:10;" d="
				M222.876,467.904c18.341,0.53,36.683,1.061,55.024,1.591"/>
			<path style="fill:none;stroke:#FFFFFF;stroke-width:0.6;stroke-linecap:round;stroke-linejoin:round;stroke-miterlimit:10;" d="
				M251.366,452.01c3.521,0.055,7.042,0.109,10.563,0.164"/>
			<path style="fill:none;stroke:#FFFFFF;stroke-width:0.6;stroke-linecap:round;stroke-linejoin:round;stroke-miterlimit:10;" d="
				M251.12,455.741c3.93,0,7.86,0,11.79,0"/>
		</g>
		<g>
			<path style="fill:#F74C32;" d="M352.809,339.536c-6.434-9.1-14.831-18.549-22.378-26.75
				c-13.421-14.583-44.512-36.374-44.512-36.374s-2.989-6.063-4.466-9.009c-19.674,7.923-38.491,15.677-58.165,23.6
				c0.513,8.924,1.043,17.945,3.611,26.508c1.988,6.627,15.378,50.05,15.378,50.05c-12.036,31.195-20.138,71.673-20.138,71.673
				c12.17,1.097,36.464,3.705,48.634,4.802c4.762-17.57,8.868-35.448,13.63-53.017c5.253-19.381,2.057-40.332-3.808-59.538
				c9.807,7.515,23.157,19.969,32.964,27.483c19.159,39.3,39.495,63.665,39.495,63.665l40.785-25.797
				C393.84,396.832,369.776,363.533,352.809,339.536z"/>
			<path style="fill:none;stroke:#060305;stroke-width:0.6;stroke-linecap:round;stroke-linejoin:round;stroke-miterlimit:10;" d="
				M224.369,296.139c19.534-7.905,39.068-15.811,58.603-23.716"/>
			<path style="fill:none;stroke:#060305;stroke-width:0.6;stroke-linecap:round;stroke-linejoin:round;stroke-miterlimit:10;" d="
				M276.326,315.76c1.565,5.647,3.13,11.294,4.695,16.94"/>
			<path style="fill:none;stroke:#060305;stroke-width:0.6;stroke-linecap:round;stroke-linejoin:round;stroke-miterlimit:10;" d="
				M227.852,294.887c4.311,24.639,11.065,48.849,20.13,72.161c-9.605,22.559-16.364,46.58-18.481,71.007"/>
			<path style="fill:none;stroke:#060305;stroke-width:0.6;stroke-linecap:round;stroke-linejoin:round;stroke-miterlimit:10;" d="
				M278.81,324.417c12.563,9.531,25.127,19.063,37.69,28.594c11.272,25.422,24.307,46.21,40.144,66.206"/>
			<path style="fill:none;stroke:#060305;stroke-width:0.6;stroke-linecap:round;stroke-linejoin:round;stroke-miterlimit:10;" d="
				M230.895,311.174c3.501-5.297,4.234-12.32,1.904-18.226"/>
			<path style="fill:none;stroke:#060305;stroke-width:0.6;stroke-linecap:round;stroke-linejoin:round;stroke-miterlimit:10;" d="
				M278.581,274.503c2.83,3.999,6.463,7.428,10.619,10.022"/>
		</g>
		<g>
			<g>
				<path style="fill:none;stroke:#060305;stroke-width:0.6;stroke-linecap:round;stroke-linejoin:round;stroke-miterlimit:10;" d="
					M230.822,198.802c0.882,2.124-0.053,4.619-1.546,6.368c-1.493,1.75-3.482,2.991-5.203,4.517"/>
				<path style="fill:none;stroke:#060305;stroke-width:0.6;stroke-linecap:round;stroke-linejoin:round;stroke-miterlimit:10;" d="
					M240.804,222.703c4.843-1.979,8.731-6.169,10.341-11.147"/>
				<path style="fill:#060305;" d="M249.949,197.237c-1.424,0.081-2.839,0.185-4.25,0.298c0.126,2.064-0.159,4.153-0.858,6.099
					c-0.12-2.012-0.487-4.006-1.068-5.935c-3.779,0.325-7.541,0.692-11.363,0.909c0.094,2.288-0.845,4.598-2.507,6.173
					c-1.64,1.553-3.871,2.362-5.533,3.892c-1.739,1.601-2.743,3.972-2.683,6.335c0.06,2.364,1.184,4.68,3.002,6.191l11.523,2.554
					c5.611-0.442,10.435-4.724,12.647-9.899C251.069,208.678,251.057,202.755,249.949,197.237z"/>
			</g>
			<g>
				<path style="fill:#C14F4F;" d="M237.672,229.224c-0.218-1.086-0.34-2.197-0.557-3.283c1.271,0.219,2.643-0.328,3.414-1.362
					s0.905-2.505,0.333-3.66c-0.572-1.156-1.823-1.941-3.113-1.955c-0.34,0.443-0.694,0.915-1.034,1.359
					c-0.406-1.329-0.753-2.608-1.159-3.937c-0.354-1.159-1.573-2.072-2.719-2.466c-1.146-0.394-2.47-0.229-3.484,0.434
					c-1.061-0.437-2.319-0.412-3.359,0.074c-1.04,0.486-1.86,1.421-2.205,2.516c-0.478,1.513-0.735,3.028-1.073,4.578
					c-0.293,1.341,0.092,2.912,0.805,4.085c0.713,1.173,1.875,2.066,3.192,2.451c0.187,0.982,0.395,2.029,0.582,3.011
					c0.452,2.368,3.497,3.612,5.884,3.271C235.566,234,238.145,231.588,237.672,229.224z"/>
				<path style="fill:#060305;" d="M233.104,219.084c0-0.346-0.28-0.626-0.626-0.626c-0.346,0-0.626,0.28-0.626,0.626
					c0,0.346,0.28,0.626,0.626,0.626C232.824,219.71,233.104,219.43,233.104,219.084z"/>
				<path style="fill:#060305;" d="M226.262,218.644c0-0.346-0.28-0.626-0.626-0.626c-0.346,0-0.626,0.28-0.626,0.626
					c0,0.346,0.28,0.626,0.626,0.626C225.982,219.27,226.262,218.99,226.262,218.644z"/>
				<path style="fill:none;stroke:#060305;stroke-width:0.6;stroke-linecap:round;stroke-linejoin:round;stroke-miterlimit:10;" d="
					M237.477,221.813c0.615-0.221,1.231-0.443,1.846-0.665"/>
				<path style="fill:none;stroke:#060305;stroke-width:0.6;stroke-linecap:round;stroke-linejoin:round;stroke-miterlimit:10;" d="
					M236.51,225.805c0.308,0.056,0.616,0.112,0.924,0.169"/>
				<path style="fill:none;stroke:#060305;stroke-width:0.6;stroke-linecap:round;stroke-linejoin:round;stroke-miterlimit:10;" d="
					M224.965,216.219c0.839-0.145,1.678-0.289,2.517-0.434"/>
				<path style="fill:none;stroke:#060305;stroke-width:0.6;stroke-linecap:round;stroke-linejoin:round;stroke-miterlimit:10;" d="
					M228.69,218.519c-0.362,0.755-0.724,1.511-1.087,2.266c0.327,0.005,0.653,0.009,0.98,0.014"/>
				<path style="fill:none;stroke:#060305;stroke-width:0.6;stroke-linecap:round;stroke-linejoin:round;stroke-miterlimit:10;" d="
					M229.426,222.523c0.038-0.359,0.304-0.683,0.648-0.791c0.344-0.108,0.748,0.006,0.984,0.279
					c0.254-0.285,0.813-0.478,1.163-0.327"/>
				<path style="fill:none;stroke:#060305;stroke-width:0.6;stroke-linecap:round;stroke-linejoin:round;stroke-miterlimit:10;" d="
					M232.39,215.212c0.594,0.573,1.187,1.146,1.781,1.719"/>
				<path style="fill:none;stroke:#060305;stroke-width:0.6;stroke-linecap:round;stroke-linejoin:round;stroke-miterlimit:10;" d="
					M226.58,228.18c2.133,0.976,4.735,0.851,6.765-0.324"/>
			</g>
		</g>
		<g>
			<g>
				<path style="fill:#6C6CE7;" d="M182.834,244.727c0.024,12.281-0.267,24.767-0.243,37.048c5.97-1.225,11.671-2.004,17.641-3.23
					c-1.309,16.266-3.154,32.096-4.463,48.362c5.088,3.017,10.354,5.962,15.895,8.034l4.684-101.863
					C205.176,236.962,194.005,240.844,182.834,244.727z"/>
				<path style="fill:none;stroke:#060305;stroke-width:0.6;stroke-linecap:round;stroke-linejoin:round;stroke-miterlimit:10;" d="
					M205.843,237.003c-2.328,6.217-4.656,12.434-6.983,18.651c4.174-0.323,8.358-0.544,12.533-0.867
					c1.011,2.999,2.292,5.673,3.304,8.672"/>
				<path style="fill:none;stroke:#060305;stroke-width:0.6;stroke-linecap:round;stroke-linejoin:round;stroke-miterlimit:10;" d="
					M200.02,278.833c0.258-2.559,0.517-5.119,0.775-7.678"/>
				<path style="fill:none;stroke:#060305;stroke-width:0.6;stroke-linecap:round;stroke-linejoin:round;stroke-miterlimit:10;" d="
					M187.934,243.644c-0.372,12.18-0.743,24.359-1.115,36.538"/>
			</g>
			<g>
				<path style="fill:#6C6CE7;" d="M315.224,251.354c-5.58-12.313-11.609-24.684-17.189-36.997
					c-7.599,0.983-15.791,1.832-23.393,2.785c-6.701,0.84-13.306,2.441-19.648,4.763c15.219,28.686,30.327,57.125,45.546,85.811
					l11.588-16.492c-6.849-12.113-13.916-24.357-20.765-36.471C299.421,253.75,307.167,252.355,315.224,251.354z"/>
				<path style="fill:none;stroke:#060305;stroke-width:0.6;stroke-linecap:round;stroke-linejoin:round;stroke-miterlimit:10;" d="
					M265.869,219.49c5.688,3.821,11.29,7.712,16.978,11.534c-4.479,2.881-8.958,5.761-13.437,8.642
					c0.82,4.053,1.402,7.919,2.222,11.971"/>
				<path style="fill:none;stroke:#060305;stroke-width:0.6;stroke-linecap:round;stroke-linejoin:round;stroke-miterlimit:10;" d="
					M286.868,246.84c1.667,2.881,3.334,5.762,5.001,8.642"/>
				<path style="fill:none;stroke:#060305;stroke-width:0.6;stroke-linecap:round;stroke-linejoin:round;stroke-miterlimit:10;" d="
					M293.628,215.734c5.459,11.972,10.918,23.943,16.376,35.915"/>
			</g>
		</g>
	</g>
	<g>
		<g>
			<path style="fill:#F74C32;" d="M247.053,86.712c-0.316-2.04-0.412-4.144-0.201-6.293c1.354-13.785,13.627-23.863,27.412-22.509
				c13.785,1.354,23.862,13.627,22.508,27.412c-0.211,2.149-0.715,4.194-1.422,6.133l42.916,4.215
				c0.388-2.029,0.701-4.088,0.907-6.184c3.654-37.203-23.543-70.323-60.745-73.977c-37.203-3.654-70.323,23.542-73.977,60.745
				c-0.206,2.096-0.3,4.176-0.314,6.242L247.053,86.712z"/>
			<path style="fill:none;stroke:#FFFFFF;stroke-width:0.6;stroke-linecap:round;stroke-linejoin:round;stroke-miterlimit:10;" d="
				M221.063,45.232c12.583-16.982,34.294-26.749,55.349-24.898"/>
		</g>
		<g>
			
				<ellipse transform="matrix(0.9732 -0.2298 0.2298 0.9732 -37.7284 33.2855)" style="fill:#FEB4B4;" cx="124.073" cy="178.659" rx="40.315" ry="40.315"/>
			<path style="fill:none;stroke:#FFFFFF;stroke-width:0.6;stroke-linecap:round;stroke-linejoin:round;stroke-miterlimit:10;" d="
				M90.518,165.18c4.697-11.743,15.929-20.617,28.44-22.467"/>
		</g>
		<g>
			<circle style="fill:#6C6CE7;" cx="186.947" cy="53.262" r="22.636"/>
			<path style="fill:none;stroke:#FFFFFF;stroke-width:0.6;stroke-linecap:round;stroke-linejoin:round;stroke-miterlimit:10;" d="
				M168.705,48.03c1.06-4.182,3.563-7.984,6.986-10.61c3.423-2.626,7.744-4.059,12.058-3.999"/>
		</g>
		<g>
			<rect x="325.809" y="103.969" style="fill:#FDD34F;" width="84.879" height="44.882"/>
			<path style="fill:none;stroke:#FFFFFF;stroke-width:0.6;stroke-linecap:round;stroke-linejoin:round;stroke-miterlimit:10;" d="
				M329.234,108.398c18.091-0.392,36.183-0.785,54.274-1.177"/>
		</g>
		<g>
			<polygon style="fill:#E28492;" points="88.755,144.907 390.538,94.424 79.9,64.406 			"/>
			<path style="fill:none;stroke:#FFFFFF;stroke-width:0.6;stroke-linecap:round;stroke-linejoin:round;stroke-miterlimit:10;" d="
				M84.578,68.958c22.931,1.976,45.863,3.951,68.794,5.927"/>
		</g>
	</g>
	<g>
		<path style="fill:#F74C32;" d="M317.834,153.664c0-1.441-1.168-2.61-2.61-2.61c-1.441,0-2.61,1.168-2.61,2.61
			c0,1.441,1.168,2.61,2.61,2.61C316.666,156.274,317.834,155.105,317.834,153.664z"/>
		
			<circle style="fill:none;stroke:#060305;stroke-width:0.6;stroke-linecap:round;stroke-linejoin:round;stroke-miterlimit:10;" cx="213.716" cy="364.92" r="2.61"/>
		<path style="fill:none;stroke:#060305;stroke-width:0.6;stroke-linecap:round;stroke-linejoin:round;stroke-miterlimit:10;" d="
			M340.575,262.504c0-1.441-1.168-2.61-2.61-2.61c-1.441,0-2.61,1.168-2.61,2.61c0,1.441,1.168,2.61,2.61,2.61
			C339.407,265.114,340.575,263.946,340.575,262.504z"/>
		<circle style="fill:#FDD34F;" cx="193.036" cy="198.932" r="2.61"/>
		<circle style="fill:#6C6CE7;" cx="287.54" cy="170.847" r="1.044"/>
		<circle style="fill:#6C6CE7;" cx="381.238" cy="289.064" r="1.044"/>
		<path style="fill:#6C6CE7;" d="M171.4,316.297c0-0.577-0.467-1.044-1.044-1.044c-0.577,0-1.044,0.467-1.044,1.044
			c0,0.577,0.467,1.044,1.044,1.044C170.932,317.341,171.4,316.874,171.4,316.297z"/>
		<circle style="fill:#6C6CE7;" cx="88.624" cy="315.253" r="1.044"/>
		<path style="fill:#FDD34F;" d="M72.058,255.992c0-0.577-0.467-1.044-1.044-1.044c-0.577,0-1.044,0.467-1.044,1.044
			c0,0.577,0.467,1.044,1.044,1.044C71.591,257.036,72.058,256.568,72.058,255.992z"/>
		<circle style="fill:#F74C32;" cx="355.049" cy="235.157" r="1.044"/>
		<circle style="fill:#6C6CE7;" cx="193.096" cy="157.525" r="1.044"/>
		<path style="fill:#F74C32;" d="M69.97,164.312c0-0.577-0.467-1.044-1.044-1.044c-0.576,0-1.044,0.467-1.044,1.044
			c0,0.576,0.467,1.044,1.044,1.044C69.503,165.356,69.97,164.888,69.97,164.312z"/>
		<polygon style="fill:#6C6CE7;" points="249.545,164.312 245.1,172.009 253.989,172.009 		"/>
		<polygon style="fill:#F74C32;" points="98.948,256.672 103.393,248.975 94.504,248.975 		"/>
		<g>
			
				<line style="fill:none;stroke:#060305;stroke-width:0.6;stroke-linecap:round;stroke-linejoin:round;stroke-miterlimit:10;" x1="273.408" y1="141.157" x2="266.243" y2="148.322"/>
			
				<line style="fill:none;stroke:#060305;stroke-width:0.6;stroke-linecap:round;stroke-linejoin:round;stroke-miterlimit:10;" x1="266.243" y1="141.157" x2="273.408" y2="148.322"/>
		</g>
		<g>
			
				<line style="fill:none;stroke:#060305;stroke-width:0.6;stroke-linecap:round;stroke-linejoin:round;stroke-miterlimit:10;" x1="118.953" y1="266.591" x2="111.789" y2="273.755"/>
			
				<line style="fill:none;stroke:#060305;stroke-width:0.6;stroke-linecap:round;stroke-linejoin:round;stroke-miterlimit:10;" x1="111.789" y1="266.591" x2="118.953" y2="273.755"/>
		</g>
		<g>
			
				<line style="fill:none;stroke:#060305;stroke-width:0.6;stroke-linecap:round;stroke-linejoin:round;stroke-miterlimit:10;" x1="407.573" y1="257.453" x2="400.409" y2="264.618"/>
			
				<line style="fill:none;stroke:#060305;stroke-width:0.6;stroke-linecap:round;stroke-linejoin:round;stroke-miterlimit:10;" x1="400.409" y1="257.453" x2="407.573" y2="264.618"/>
		</g>
		<g>
			
				<line style="fill:none;stroke:#060305;stroke-width:0.6;stroke-linecap:round;stroke-linejoin:round;stroke-miterlimit:10;" x1="65.079" y1="136.41" x2="57.914" y2="143.575"/>
			
				<line style="fill:none;stroke:#060305;stroke-width:0.6;stroke-linecap:round;stroke-linejoin:round;stroke-miterlimit:10;" x1="57.914" y1="136.41" x2="65.079" y2="143.575"/>
		</g>
	</g>
</g>
</svg>
